# xmcd
#
# Track frame offsets: 
#        150
#        13900
#        25967
#        40937
#        57162
#        75982
#        86650
#        101125
#        114827
#        129717
#        143930
#
# Disc length: 2193 seconds
#
# Revision: 4
# Processed by: cddbd v1.5.2PL0 Copyright (c) Steve Scherf et al.
# Submitted via: ExactAudioCopy v1.0b3
#
DISCID=8c088f0b
DTITLE=Asleep At The Wheel - The Wheel Keeps On Rollin'
DYEAR=1995
DGENRE=Western Swing
TTITLE0=Meanwhile Back At The Ranch
TTITLE1=How The West Was Swung
TTITLE2=Lay Down Sally
TTITLE3=The Wheel Keeps Rollin'
TTITLE4=Hightower
TTITLE5=If I Could
TTITLE6=Smoke! Smoke! Smoke! (That Cigarette)
TTITLE7=Rockin' Rodeo
TTITLE8=She Came To Dance
TTITLE9=In My Dreams
TTITLE10=Lay Down Sally (Extended Mix)
EXTD=YEAR: 1995
EXTT0=
EXTT1=
EXTT2=
EXTT3=
EXTT4=
EXTT5=
EXTT6=
EXTT7=
EXTT8=
EXTT9=
EXTT10=
PLAYORDER=
